<svg width="512" height="512" viewBox="0 0 512 512" fill="none" xmlns="http://www.w3.org/2000/svg">
<g clip-path="url(#clip0_3_33)">
<circle cx="256" cy="256" r="256" fill="#7743DB"/>
<path d="M77.0543 205.78C77.0543 193.426 87.0689 183.411 99.4225 183.411H412.577C424.931 183.411 434.946 193.426 434.946 205.78V205.78C434.946 218.133 424.931 228.148 412.577 228.148H99.4225C87.0689 228.148 77.0543 218.133 77.0543 205.78V205.78Z" fill="#FFFBF5"/>
<path d="M83.0291 220.761C74.2938 212.025 74.2938 197.863 83.0291 189.127L146.296 125.86C155.031 117.125 169.194 117.125 177.929 125.86V125.86C186.665 134.596 186.665 148.759 177.929 157.494L114.663 220.761C105.927 229.496 91.7644 229.496 83.0291 220.761V220.761Z" fill="#FFFBF5"/>
<path d="M434.946 307.261C434.946 319.615 424.931 329.629 412.577 329.629H99.4226C87.069 329.629 77.0544 319.615 77.0544 307.261V307.261C77.0544 294.907 87.069 284.893 99.4226 284.893H412.577C424.931 284.893 434.946 294.907 434.946 307.261V307.261Z" fill="#FFFBF5"/>
<path d="M428.971 292.28C437.706 301.015 437.706 315.178 428.971 323.913L365.704 387.18C356.969 395.915 342.806 395.915 334.071 387.18V387.18C325.335 378.445 325.335 364.282 334.071 355.547L397.337 292.28C406.073 283.545 420.236 283.545 428.971 292.28V292.28Z" fill="#FFFBF5"/>
</g>
<defs>
<clipPath id="clip0_3_33">
<rect width="512" height="512" fill="white"/>
</clipPath>
</defs>
</svg>
